<!-- <svg xmlns="http://www.w3.org/2000/svg" viewBox="0 0 1440 320"><path fill="#ffffff6e" fill-opacity="1" d="M0,0L60,32C120,64,240,128,360,176C480,224,600,256,720,245.3C840,235,960,181,1080,170.7C1200,160,1320,192,1380,208L1440,224L1440,320L1380,320C1320,320,1200,320,1080,320C960,320,840,320,720,320C600,320,480,320,360,320C240,320,120,320,60,320L0,320Z"></path></svg> -->
<svg xmlns="http://www.w3.org/2000/svg" viewBox="0 0 1440 320"><path fill="#fafafa91" fill-opacity="1" d="M0,0L60,48C120,96,240,192,360,192C480,192,600,96,720,74.7C840,53,960,107,1080,112C1200,117,1320,75,1380,53.3L1440,32L1440,320L1380,320C1320,320,1200,320,1080,320C960,320,840,320,720,320C600,320,480,320,360,320C240,320,120,320,60,320L0,320Z"></path></svg>